<svg width="1752" height="920" xmlns="http://www.w3.org/2000/svg" xmlns:xlink="http://www.w3.org/1999/xlink" overflow="hidden"><defs><filter id="fx0" x="-10%" y="-10%" width="120%" height="120%" filterUnits="userSpaceOnUse" primitiveUnits="userSpaceOnUse"><feComponentTransfer color-interpolation-filters="sRGB"><feFuncR type="discrete" tableValues="0 0"/><feFuncG type="discrete" tableValues="0 0"/><feFuncB type="discrete" tableValues="0 0"/><feFuncA type="linear" slope="0.4" intercept="0"/></feComponentTransfer><feGaussianBlur stdDeviation="6.11111 6.11111"/></filter><filter id="fx1" x="-10%" y="-10%" width="120%" height="120%" filterUnits="userSpaceOnUse" primitiveUnits="userSpaceOnUse"><feComponentTransfer color-interpolation-filters="sRGB"><feFuncR type="discrete" tableValues="0 0"/><feFuncG type="discrete" tableValues="0 0"/><feFuncB type="discrete" tableValues="0 0"/><feFuncA type="linear" slope="0.4" intercept="0"/></feComponentTransfer><feGaussianBlur stdDeviation="6.11111 6.11111"/></filter><clipPath id="clip2"><rect x="333" y="237" width="1752" height="920"/></clipPath><clipPath id="clip3"><rect x="443" y="237" width="1642" height="910"/></clipPath><clipPath id="clip4"><rect x="443" y="237" width="1642" height="910"/></clipPath><clipPath id="clip5"><rect x="551" y="263" width="1465" height="646"/></clipPath><clipPath id="clip6"><rect x="-16" y="-16" width="395" height="213"/></clipPath><clipPath id="clip7"><rect x="0" y="0" width="1237" height="607"/></clipPath><clipPath id="clip8"><rect x="551" y="263" width="1465" height="646"/></clipPath><clipPath id="clip9"><rect x="551" y="263" width="1465" height="646"/></clipPath><clipPath id="clip10"><rect x="443" y="237" width="1642" height="910"/></clipPath><clipPath id="clip11"><rect x="443" y="237" width="1642" height="910"/></clipPath><clipPath id="clip12"><rect x="443" y="237" width="1642" height="910"/></clipPath><clipPath id="clip13"><rect x="443" y="237" width="1642" height="910"/></clipPath><clipPath id="clip14"><rect x="443" y="237" width="1642" height="910"/></clipPath><clipPath id="clip15"><rect x="443" y="237" width="1642" height="910"/></clipPath><clipPath id="clip16"><rect x="443" y="237" width="1642" height="910"/></clipPath><clipPath id="clip17"><rect x="443" y="237" width="1642" height="910"/></clipPath><clipPath id="clip18"><rect x="443" y="237" width="1642" height="910"/></clipPath><clipPath id="clip19"><rect x="443" y="237" width="1642" height="910"/></clipPath><clipPath id="clip20"><rect x="443" y="237" width="1642" height="910"/></clipPath><clipPath id="clip21"><rect x="443" y="237" width="1642" height="910"/></clipPath><clipPath id="clip22"><rect x="443" y="237" width="1642" height="910"/></clipPath><clipPath id="clip23"><rect x="443" y="237" width="1642" height="910"/></clipPath><clipPath id="clip24"><rect x="443" y="237" width="1642" height="910"/></clipPath><clipPath id="clip25"><rect x="443" y="237" width="1642" height="910"/></clipPath><clipPath id="clip26"><rect x="443" y="237" width="1642" height="910"/></clipPath><clipPath id="clip27"><rect x="452" y="275" width="1465" height="631"/></clipPath><clipPath id="clip28"><rect x="-16" y="-16" width="395" height="210"/></clipPath><clipPath id="clip29"><rect x="0" y="0" width="1238" height="593"/></clipPath><clipPath id="clip30"><rect x="452" y="275" width="1465" height="631"/></clipPath><clipPath id="clip31"><rect x="452" y="275" width="1465" height="631"/></clipPath><clipPath id="clip32"><rect x="333" y="247" width="1642" height="909"/></clipPath><clipPath id="clip33"><rect x="333" y="247" width="1642" height="909"/></clipPath><clipPath id="clip34"><rect x="333" y="247" width="1642" height="909"/></clipPath><clipPath id="clip35"><rect x="333" y="247" width="1642" height="909"/></clipPath></defs><g clip-path="url(#clip2)" transform="translate(-333 -237)"><rect x="444" y="238" width="1641" height="909" fill="#FFFFFF"/><g clip-path="url(#clip3)"><rect x="552" y="263" width="1461" height="643" fill="#FFFFFF"/></g><g clip-path="url(#clip4)"><path d="M551.5 841.528 2013.5 841.528M551.5 777.526 2013.5 777.526M551.5 712.524 2013.5 712.524M551.5 648.521 2013.5 648.521M551.5 584.519 2013.5 584.519M551.5 520.517 2013.5 520.517M551.5 455.515 2013.5 455.515M551.5 391.513 2013.5 391.513M551.5 327.511 2013.5 327.511M551.5 263.5 2013.5 263.5" stroke="#D9D9D9" stroke-width="3.4375" stroke-linejoin="round" stroke-miterlimit="10" fill="none"/></g><g clip-path="url(#clip5)"><g clip-path="url(#clip6)" filter="url(#fx0)" transform="translate(664 321)"><g clip-path="url(#clip7)"><path d="M20.0224 21.7608 121.026 21.7608 121.026 598.75 20.0224 598.75ZM385.034 19.7607 486.038 19.7607 486.038 598.75 385.034 598.75ZM750.046 20.7608 852.05 20.7608 852.05 598.75 750.046 598.75ZM1116.06 19.7607 1217.06 19.7607 1217.06 598.75 1116.06 598.75Z" fill="#C55A11"/></g></g></g><g clip-path="url(#clip8)"><path d="M684.022 329.011 785.026 329.011 785.026 906 684.022 906ZM1049.03 327.011 1150.04 327.011 1150.04 906 1049.03 906ZM1414.05 328.011 1516.05 328.011 1516.05 906 1414.05 906ZM1780.06 327.011 1881.06 327.011 1881.06 906 1780.06 906Z" fill="#C55A11"/></g><g clip-path="url(#clip9)"><path d="M684.022 475.016 785.026 475.016 785.026 906 684.022 906ZM1049.03 480.016 1150.04 480.016 1150.04 906 1049.03 906ZM1414.05 435.014 1516.05 435.014 1516.05 906 1414.05 906ZM1780.06 346.011 1881.06 346.011 1881.06 906 1780.06 906Z" fill="#FFFFFF"/></g><g clip-path="url(#clip10)"><path d="M551.5 905.5 2013.5 905.5" stroke="#D9D9D9" stroke-width="3.4375" stroke-linejoin="round" stroke-miterlimit="10" fill="none" fill-rule="evenodd"/></g><g clip-path="url(#clip11)"><path d="M551.5 905.5 551.5 918.5M916.53 905.5 916.53 918.5M1282.54 905.5 1282.54 918.5M1647.55 905.5 1647.55 918.5M2013.5 905.5 2013.5 918.5" stroke="#D9D9D9" stroke-width="3.4375" stroke-linejoin="round" stroke-miterlimit="10" fill="none"/></g><g clip-path="url(#clip12)"><text fill="#595959" font-family="Calibri,Calibri_MSFontService,sans-serif" font-weight="400" font-size="41" transform="matrix(1 0 0 1 492.514 917)">0</text></g><g clip-path="url(#clip13)"><text fill="#595959" font-family="Calibri,Calibri_MSFontService,sans-serif" font-weight="400" font-size="41" transform="matrix(1 0 0 1 471.614 853)">20</text></g><g clip-path="url(#clip14)"><text fill="#595959" font-family="Calibri,Calibri_MSFontService,sans-serif" font-weight="400" font-size="41" transform="matrix(1 0 0 1 471.614 789)">40</text></g><g clip-path="url(#clip15)"><text fill="#595959" font-family="Calibri,Calibri_MSFontService,sans-serif" font-weight="400" font-size="41" transform="matrix(1 0 0 1 471.614 725)">60</text></g><g clip-path="url(#clip16)"><text fill="#595959" font-family="Calibri,Calibri_MSFontService,sans-serif" font-weight="400" font-size="41" transform="matrix(1 0 0 1 471.614 660)">80</text></g><g clip-path="url(#clip17)"><text fill="#595959" font-family="Calibri,Calibri_MSFontService,sans-serif" font-weight="400" font-size="41" transform="matrix(1 0 0 1 450.714 596)">100</text></g><g clip-path="url(#clip18)"><text fill="#595959" font-family="Calibri,Calibri_MSFontService,sans-serif" font-weight="400" font-size="41" transform="matrix(1 0 0 1 450.714 532)">120</text></g><g clip-path="url(#clip19)"><text fill="#595959" font-family="Calibri,Calibri_MSFontService,sans-serif" font-weight="400" font-size="41" transform="matrix(1 0 0 1 450.714 467)">140</text></g><g clip-path="url(#clip20)"><text fill="#595959" font-family="Calibri,Calibri_MSFontService,sans-serif" font-weight="400" font-size="41" transform="matrix(1 0 0 1 450.714 403)">160</text></g><g clip-path="url(#clip21)"><text fill="#595959" font-family="Calibri,Calibri_MSFontService,sans-serif" font-weight="400" font-size="41" transform="matrix(1 0 0 1 450.714 339)">180</text></g><g clip-path="url(#clip22)"><text fill="#595959" font-family="Calibri,Calibri_MSFontService,sans-serif" font-weight="400" font-size="41" transform="matrix(1 0 0 1 450.714 275)">200</text></g><g clip-path="url(#clip23)"><text fill="#595959" font-family="Calibri,Calibri_MSFontService,sans-serif" font-weight="400" font-size="41" transform="matrix(6.12323e-17 -1 1 6.12323e-17 748.173 1091)">Indice Izq</text></g><g clip-path="url(#clip24)"><text fill="#595959" font-family="Calibri,Calibri_MSFontService,sans-serif" font-weight="400" font-size="41" transform="matrix(6.12323e-17 -1 1 6.12323e-17 1113.51 1098)">Medio Izq</text></g><g clip-path="url(#clip25)"><text fill="#595959" font-family="Calibri,Calibri_MSFontService,sans-serif" font-weight="400" font-size="41" transform="matrix(6.12323e-17 -1 1 6.12323e-17 1478.84 1100)">Anular Izq</text></g><g clip-path="url(#clip26)"><text fill="#595959" font-family="Calibri,Calibri_MSFontService,sans-serif" font-weight="400" font-size="41" transform="matrix(6.12323e-17 -1 1 6.12323e-17 1844.17 1140)">Meñique Izq</text></g><g clip-path="url(#clip27)"><g clip-path="url(#clip28)" filter="url(#fx1)" transform="translate(564 332)"><g clip-path="url(#clip29)"><path d="M20.0191 19.7611 122.023 19.7611 122.023 584.75 20.0191 584.75ZM386.031 19.7611 487.034 19.7611 487.034 584.75 386.031 584.75ZM751.043 19.7611 853.047 19.7611 853.047 584.75 751.043 584.75ZM1116.06 19.7611 1218.06 19.7611 1218.06 584.75 1116.06 584.75Z" fill="#4472C4"/></g></g></g><g clip-path="url(#clip30)"><path d="M584.019 338.011 686.023 338.011 686.023 903 584.019 903ZM950.031 338.011 1051.03 338.011 1051.03 903 950.031 903ZM1315.04 338.011 1417.05 338.011 1417.05 903 1315.04 903ZM1680.06 338.011 1782.06 338.011 1782.06 903 1680.06 903Z" fill="#4472C4"/></g><g clip-path="url(#clip31)"><path d="M584.019 728.024 686.023 728.024 686.023 903 584.019 903ZM950.031 677.022 1051.03 677.022 1051.03 903 950.031 903ZM1315.04 627.021 1417.05 627.021 1417.05 903 1315.04 903ZM1680.06 589.019 1782.06 589.019 1782.06 903 1680.06 903Z" fill="#FFFFFF"/></g><g clip-path="url(#clip32)"><text fill="#595959" font-family="Calibri,Calibri_MSFontService,sans-serif" font-weight="400" font-size="41" transform="matrix(6.12323e-17 -1 1 6.12323e-17 649.032 1100)">Indice Der</text></g><g clip-path="url(#clip33)"><text fill="#595959" font-family="Calibri,Calibri_MSFontService,sans-serif" font-weight="400" font-size="41" transform="matrix(6.12323e-17 -1 1 6.12323e-17 1014.36 1108)">Medio Der</text></g><g clip-path="url(#clip34)"><text fill="#595959" font-family="Calibri,Calibri_MSFontService,sans-serif" font-weight="400" font-size="41" transform="matrix(6.12323e-17 -1 1 6.12323e-17 1379.7 1110)">Anular Der</text></g><g clip-path="url(#clip35)"><text fill="#595959" font-family="Calibri,Calibri_MSFontService,sans-serif" font-weight="400" font-size="41" transform="matrix(6.12323e-17 -1 1 6.12323e-17 1745.03 1150)">Meñique Der</text></g></g></svg>