<svg width="1714" height="919" xmlns="http://www.w3.org/2000/svg" xmlns:xlink="http://www.w3.org/1999/xlink" overflow="hidden"><defs><filter id="fx0" x="-10%" y="-10%" width="120%" height="120%" filterUnits="userSpaceOnUse" primitiveUnits="userSpaceOnUse"><feComponentTransfer color-interpolation-filters="sRGB"><feFuncR type="discrete" tableValues="0 0"/><feFuncG type="discrete" tableValues="0 0"/><feFuncB type="discrete" tableValues="0 0"/><feFuncA type="linear" slope="0.4" intercept="0"/></feComponentTransfer><feGaussianBlur stdDeviation="6.11111 6.11111"/></filter><filter id="fx1" x="-10%" y="-10%" width="120%" height="120%" filterUnits="userSpaceOnUse" primitiveUnits="userSpaceOnUse"><feComponentTransfer color-interpolation-filters="sRGB"><feFuncR type="discrete" tableValues="0 0"/><feFuncG type="discrete" tableValues="0 0"/><feFuncB type="discrete" tableValues="0 0"/><feFuncA type="linear" slope="0.4" intercept="0"/></feComponentTransfer><feGaussianBlur stdDeviation="6.11111 6.11111"/></filter><clipPath id="clip2"><rect x="275" y="206" width="1714" height="919"/></clipPath><clipPath id="clip3"><rect x="275" y="206" width="1641" height="909"/></clipPath><clipPath id="clip4"><rect x="275" y="206" width="1641" height="909"/></clipPath><clipPath id="clip5"><rect x="382" y="231" width="1465" height="646"/></clipPath><clipPath id="clip6"><rect x="-16" y="-16" width="409" height="213"/></clipPath><clipPath id="clip7"><rect x="0" y="0" width="1291" height="606"/></clipPath><clipPath id="clip8"><rect x="382" y="231" width="1465" height="646"/></clipPath><clipPath id="clip9"><rect x="382" y="231" width="1465" height="646"/></clipPath><clipPath id="clip10"><rect x="275" y="206" width="1641" height="909"/></clipPath><clipPath id="clip11"><rect x="275" y="206" width="1641" height="909"/></clipPath><clipPath id="clip12"><rect x="275" y="206" width="1641" height="909"/></clipPath><clipPath id="clip13"><rect x="275" y="206" width="1641" height="909"/></clipPath><clipPath id="clip14"><rect x="275" y="206" width="1641" height="909"/></clipPath><clipPath id="clip15"><rect x="275" y="206" width="1641" height="909"/></clipPath><clipPath id="clip16"><rect x="275" y="206" width="1641" height="909"/></clipPath><clipPath id="clip17"><rect x="275" y="206" width="1641" height="909"/></clipPath><clipPath id="clip18"><rect x="275" y="206" width="1641" height="909"/></clipPath><clipPath id="clip19"><rect x="275" y="206" width="1641" height="909"/></clipPath><clipPath id="clip20"><rect x="275" y="206" width="1641" height="909"/></clipPath><clipPath id="clip21"><rect x="275" y="206" width="1641" height="909"/></clipPath><clipPath id="clip22"><rect x="275" y="206" width="1641" height="909"/></clipPath><clipPath id="clip23"><rect x="275" y="206" width="1641" height="909"/></clipPath><clipPath id="clip24"><rect x="275" y="206" width="1641" height="909"/></clipPath><clipPath id="clip25"><rect x="275" y="206" width="1641" height="909"/></clipPath><clipPath id="clip26"><rect x="275" y="206" width="1641" height="909"/></clipPath><clipPath id="clip27"><rect x="275" y="206" width="1641" height="909"/></clipPath><clipPath id="clip28"><rect x="466" y="243" width="1464" height="632"/></clipPath><clipPath id="clip29"><rect x="-16" y="-16" width="409" height="210"/></clipPath><clipPath id="clip30"><rect x="0" y="0" width="1290" height="593"/></clipPath><clipPath id="clip31"><rect x="466" y="243" width="1464" height="632"/></clipPath><clipPath id="clip32"><rect x="466" y="243" width="1464" height="632"/></clipPath><clipPath id="clip33"><rect x="346" y="215" width="1642" height="910"/></clipPath><clipPath id="clip34"><rect x="346" y="215" width="1642" height="910"/></clipPath><clipPath id="clip35"><rect x="346" y="215" width="1642" height="910"/></clipPath><clipPath id="clip36"><rect x="346" y="215" width="1642" height="910"/></clipPath><clipPath id="clip37"><rect x="346" y="215" width="1642" height="910"/></clipPath></defs><g clip-path="url(#clip2)" transform="translate(-275 -206)"><rect x="275" y="206" width="1642" height="910" fill="#FFFFFF"/><g clip-path="url(#clip3)"><rect x="383" y="231" width="1461" height="643" fill="#FFFFFF"/></g><g clip-path="url(#clip4)"><path d="M382.5 809.527 1844.5 809.527M382.5 745.525 1844.5 745.525M382.5 681.523 1844.5 681.523M382.5 617.52 1844.5 617.52M382.5 552.518 1844.5 552.518M382.5 488.516 1844.5 488.516M382.5 424.514 1844.5 424.514M382.5 359.512 1844.5 359.512M382.5 295.51 1844.5 295.51M382.5 231.5 1844.5 231.5" stroke="#D9D9D9" stroke-width="3.4375" stroke-linejoin="round" stroke-miterlimit="10" fill="none"/></g><g clip-path="url(#clip5)"><g clip-path="url(#clip6)" filter="url(#fx0)" transform="translate(468 290)"><g clip-path="url(#clip7)"><path d="M20.016 39.7604 102.019 39.7604 102.019 597.75 20.016 597.75ZM313.026 19.7597 394.028 19.7597 394.028 597.75 313.026 597.75ZM605.035 19.7597 686.038 19.7597 686.038 597.75 605.035 597.75ZM897.045 26.7599 978.047 26.7599 978.047 597.75 897.045 597.75ZM1189.05 19.7597 1271.06 19.7597 1271.06 597.75 1189.05 597.75Z" fill="#C55A11"/></g></g></g><g clip-path="url(#clip8)"><path d="M488.016 316.01 570.019 316.01 570.019 874 488.016 874ZM781.026 296.01 862.028 296.01 862.028 874 781.026 874ZM1073.04 296.01 1154.04 296.01 1154.04 874 1073.04 874ZM1365.04 303.01 1446.05 303.01 1446.05 874 1365.04 874ZM1657.05 296.01 1739.06 296.01 1739.06 874 1657.05 874Z" fill="#C55A11"/></g><g clip-path="url(#clip9)"><path d="M488.016 349.011 570.019 349.011 570.019 874 488.016 874ZM781.026 375.012 862.028 375.012 862.028 874 781.026 874ZM1073.04 415.014 1154.04 415.014 1154.04 874 1073.04 874ZM1365.04 401.013 1446.05 401.013 1446.05 874 1365.04 874ZM1657.05 350.011 1739.06 350.011 1739.06 874 1657.05 874Z" fill="#FFFFFF"/></g><g clip-path="url(#clip10)"><path d="M382.5 874.5 1844.5 874.5" stroke="#D9D9D9" stroke-width="3.4375" stroke-linejoin="round" stroke-miterlimit="10" fill="none" fill-rule="evenodd"/></g><g clip-path="url(#clip11)"><path d="M382.5 874.5 382.5 887.5M675.522 874.5 675.522 887.5M967.532 874.5 967.532 887.5M1259.54 874.5 1259.54 887.5M1551.55 874.5 1551.55 887.5M1844.5 874.5 1844.5 887.5" stroke="#D9D9D9" stroke-width="3.4375" stroke-linejoin="round" stroke-miterlimit="10" fill="none"/></g><g clip-path="url(#clip12)"><text fill="#595959" font-family="Calibri,Calibri_MSFontService,sans-serif" font-weight="400" font-size="41" transform="matrix(1 0 0 1 323.675 886)">0</text></g><g clip-path="url(#clip13)"><text fill="#595959" font-family="Calibri,Calibri_MSFontService,sans-serif" font-weight="400" font-size="41" transform="matrix(1 0 0 1 302.775 821)">20</text></g><g clip-path="url(#clip14)"><text fill="#595959" font-family="Calibri,Calibri_MSFontService,sans-serif" font-weight="400" font-size="41" transform="matrix(1 0 0 1 302.775 757)">40</text></g><g clip-path="url(#clip15)"><text fill="#595959" font-family="Calibri,Calibri_MSFontService,sans-serif" font-weight="400" font-size="41" transform="matrix(1 0 0 1 302.775 693)">60</text></g><g clip-path="url(#clip16)"><text fill="#595959" font-family="Calibri,Calibri_MSFontService,sans-serif" font-weight="400" font-size="41" transform="matrix(1 0 0 1 302.775 629)">80</text></g><g clip-path="url(#clip17)"><text fill="#595959" font-family="Calibri,Calibri_MSFontService,sans-serif" font-weight="400" font-size="41" transform="matrix(1 0 0 1 281.875 564)">100</text></g><g clip-path="url(#clip18)"><text fill="#595959" font-family="Calibri,Calibri_MSFontService,sans-serif" font-weight="400" font-size="41" transform="matrix(1 0 0 1 281.875 500)">120</text></g><g clip-path="url(#clip19)"><text fill="#595959" font-family="Calibri,Calibri_MSFontService,sans-serif" font-weight="400" font-size="41" transform="matrix(1 0 0 1 281.875 436)">140</text></g><g clip-path="url(#clip20)"><text fill="#595959" font-family="Calibri,Calibri_MSFontService,sans-serif" font-weight="400" font-size="41" transform="matrix(1 0 0 1 281.875 372)">160</text></g><g clip-path="url(#clip21)"><text fill="#595959" font-family="Calibri,Calibri_MSFontService,sans-serif" font-weight="400" font-size="41" transform="matrix(1 0 0 1 281.875 307)">180</text></g><g clip-path="url(#clip22)"><text fill="#595959" font-family="Calibri,Calibri_MSFontService,sans-serif" font-weight="400" font-size="41" transform="matrix(1 0 0 1 281.875 243)">200</text></g><g clip-path="url(#clip23)"><text fill="#595959" font-family="Calibri,Calibri_MSFontService,sans-serif" font-weight="400" font-size="41" transform="matrix(6.12323e-17 -1 1 6.12323e-17 542.801 1064)">Pulgar Izq</text></g><g clip-path="url(#clip24)"><text fill="#595959" font-family="Calibri,Calibri_MSFontService,sans-serif" font-weight="400" font-size="41" transform="matrix(6.12323e-17 -1 1 6.12323e-17 835.067 1059)">Indice Izq</text></g><g clip-path="url(#clip25)"><text fill="#595959" font-family="Calibri,Calibri_MSFontService,sans-serif" font-weight="400" font-size="41" transform="matrix(6.12323e-17 -1 1 6.12323e-17 1127.33 1067)">Medio Izq</text></g><g clip-path="url(#clip26)"><text fill="#595959" font-family="Calibri,Calibri_MSFontService,sans-serif" font-weight="400" font-size="41" transform="matrix(6.12323e-17 -1 1 6.12323e-17 1419.6 1069)">Anular Izq</text></g><g clip-path="url(#clip27)"><text fill="#595959" font-family="Calibri,Calibri_MSFontService,sans-serif" font-weight="400" font-size="41" transform="matrix(6.12323e-17 -1 1 6.12323e-17 1711.87 1109)">Meñique Izq</text></g><g clip-path="url(#clip28)"><g clip-path="url(#clip29)" filter="url(#fx1)" transform="translate(552 301)"><g clip-path="url(#clip30)"><path d="M20.0188 19.7601 101.021 19.7601 101.021 584.75 20.0188 584.75ZM312.028 19.7601 393.031 19.7601 393.031 584.75 312.028 584.75ZM604.038 22.7602 685.041 22.7602 685.041 584.75 604.038 584.75ZM896.047 22.7602 978.05 22.7602 978.05 584.75 896.047 584.75ZM1189.06 22.7602 1270.06 22.7602 1270.06 584.75 1189.06 584.75Z" fill="#4472C4"/></g></g></g><g clip-path="url(#clip31)"><path d="M572.019 307.01 653.021 307.01 653.021 872 572.019 872ZM864.028 307.01 945.031 307.01 945.031 872 864.028 872ZM1156.04 310.01 1237.04 310.01 1237.04 872 1156.04 872ZM1448.05 310.01 1530.05 310.01 1530.05 872 1448.05 872ZM1741.06 310.01 1822.06 310.01 1822.06 872 1741.06 872Z" fill="#4472C4"/></g><g clip-path="url(#clip32)"><path d="M572.019 430.014 653.021 430.014 653.021 872 572.019 872ZM864.028 601.02 945.031 601.02 945.031 872 864.028 872ZM1156.04 484.016 1237.04 484.016 1237.04 872 1156.04 872ZM1448.05 466.015 1530.05 466.015 1530.05 872 1448.05 872ZM1741.06 451.015 1822.06 451.015 1822.06 872 1741.06 872Z" fill="#FFFFFF"/></g><g clip-path="url(#clip33)"><text fill="#595959" font-family="Calibri,Calibri_MSFontService,sans-serif" font-weight="400" font-size="41" transform="matrix(6.12323e-17 -1 1 6.12323e-17 626.058 1074)">Pulgar Der</text></g><g clip-path="url(#clip34)"><text fill="#595959" font-family="Calibri,Calibri_MSFontService,sans-serif" font-weight="400" font-size="41" transform="matrix(6.12323e-17 -1 1 6.12323e-17 918.324 1069)">Indice Der</text></g><g clip-path="url(#clip35)"><text fill="#595959" font-family="Calibri,Calibri_MSFontService,sans-serif" font-weight="400" font-size="41" transform="matrix(6.12323e-17 -1 1 6.12323e-17 1210.59 1076)">Medio Der</text></g><g clip-path="url(#clip36)"><text fill="#595959" font-family="Calibri,Calibri_MSFontService,sans-serif" font-weight="400" font-size="41" transform="matrix(6.12323e-17 -1 1 6.12323e-17 1502.86 1078)">Anular Der</text></g><g clip-path="url(#clip37)"><text fill="#595959" font-family="Calibri,Calibri_MSFontService,sans-serif" font-weight="400" font-size="41" transform="matrix(6.12323e-17 -1 1 6.12323e-17 1795.12 1118)">Meñique Der</text></g></g></svg>