<svg width="1714" height="920" xmlns="http://www.w3.org/2000/svg" xmlns:xlink="http://www.w3.org/1999/xlink" overflow="hidden"><defs><filter id="fx0" x="-10%" y="-10%" width="120%" height="120%" filterUnits="userSpaceOnUse" primitiveUnits="userSpaceOnUse"><feComponentTransfer color-interpolation-filters="sRGB"><feFuncR type="discrete" tableValues="0 0"/><feFuncG type="discrete" tableValues="0 0"/><feFuncB type="discrete" tableValues="0 0"/><feFuncA type="linear" slope="0.4" intercept="0"/></feComponentTransfer><feGaussianBlur stdDeviation="6.11111 6.11111"/></filter><filter id="fx1" x="-10%" y="-10%" width="120%" height="120%" filterUnits="userSpaceOnUse" primitiveUnits="userSpaceOnUse"><feComponentTransfer color-interpolation-filters="sRGB"><feFuncR type="discrete" tableValues="0 0"/><feFuncG type="discrete" tableValues="0 0"/><feFuncB type="discrete" tableValues="0 0"/><feFuncA type="linear" slope="0.4" intercept="0"/></feComponentTransfer><feGaussianBlur stdDeviation="6.11111 6.11111"/></filter><clipPath id="clip2"><rect x="478" y="171" width="1714" height="920"/></clipPath><clipPath id="clip3"><rect x="478" y="171" width="1642" height="910"/></clipPath><clipPath id="clip4"><rect x="478" y="171" width="1642" height="910"/></clipPath><clipPath id="clip5"><rect x="586" y="197" width="1465" height="646"/></clipPath><clipPath id="clip6"><rect x="-16" y="-16" width="409" height="213"/></clipPath><clipPath id="clip7"><rect x="0" y="0" width="1290" height="607"/></clipPath><clipPath id="clip8"><rect x="586" y="197" width="1465" height="646"/></clipPath><clipPath id="clip9"><rect x="586" y="197" width="1465" height="646"/></clipPath><clipPath id="clip10"><rect x="478" y="171" width="1642" height="910"/></clipPath><clipPath id="clip11"><rect x="478" y="171" width="1642" height="910"/></clipPath><clipPath id="clip12"><rect x="478" y="171" width="1642" height="910"/></clipPath><clipPath id="clip13"><rect x="478" y="171" width="1642" height="910"/></clipPath><clipPath id="clip14"><rect x="478" y="171" width="1642" height="910"/></clipPath><clipPath id="clip15"><rect x="478" y="171" width="1642" height="910"/></clipPath><clipPath id="clip16"><rect x="478" y="171" width="1642" height="910"/></clipPath><clipPath id="clip17"><rect x="478" y="171" width="1642" height="910"/></clipPath><clipPath id="clip18"><rect x="478" y="171" width="1642" height="910"/></clipPath><clipPath id="clip19"><rect x="478" y="171" width="1642" height="910"/></clipPath><clipPath id="clip20"><rect x="478" y="171" width="1642" height="910"/></clipPath><clipPath id="clip21"><rect x="478" y="171" width="1642" height="910"/></clipPath><clipPath id="clip22"><rect x="478" y="171" width="1642" height="910"/></clipPath><clipPath id="clip23"><rect x="478" y="171" width="1642" height="910"/></clipPath><clipPath id="clip24"><rect x="478" y="171" width="1642" height="910"/></clipPath><clipPath id="clip25"><rect x="478" y="171" width="1642" height="910"/></clipPath><clipPath id="clip26"><rect x="478" y="171" width="1642" height="910"/></clipPath><clipPath id="clip27"><rect x="478" y="171" width="1642" height="910"/></clipPath><clipPath id="clip28"><rect x="669" y="209" width="1465" height="631"/></clipPath><clipPath id="clip29"><rect x="-16" y="-16" width="409" height="210"/></clipPath><clipPath id="clip30"><rect x="0" y="0" width="1291" height="593"/></clipPath><clipPath id="clip31"><rect x="669" y="209" width="1465" height="631"/></clipPath><clipPath id="clip32"><rect x="669" y="209" width="1465" height="631"/></clipPath><clipPath id="clip33"><rect x="550" y="181" width="1642" height="909"/></clipPath><clipPath id="clip34"><rect x="550" y="181" width="1642" height="909"/></clipPath><clipPath id="clip35"><rect x="550" y="181" width="1642" height="909"/></clipPath><clipPath id="clip36"><rect x="550" y="181" width="1642" height="909"/></clipPath><clipPath id="clip37"><rect x="550" y="181" width="1642" height="909"/></clipPath></defs><g clip-path="url(#clip2)" transform="translate(-478 -171)"><rect x="479" y="172" width="1641" height="909" fill="#FFFFFF"/><g clip-path="url(#clip3)"><rect x="587" y="197" width="1461" height="643" fill="#FFFFFF"/></g><g clip-path="url(#clip4)"><path d="M586.5 775.526 2047.5 775.526M586.5 711.524 2047.5 711.524M586.5 646.521 2047.5 646.521M586.5 582.519 2047.5 582.519M586.5 518.517 2047.5 518.517M586.5 454.515 2047.5 454.515M586.5 389.513 2047.5 389.513M586.5 325.511 2047.5 325.511M586.5 261.509 2047.5 261.509M586.5 197.5 2047.5 197.5" stroke="#D9D9D9" stroke-width="3.4375" stroke-linejoin="round" stroke-miterlimit="10" fill="none"/></g><g clip-path="url(#clip5)"><g clip-path="url(#clip6)" filter="url(#fx0)" transform="translate(672 255)"><g clip-path="url(#clip7)"><path d="M20.0227 21.7586 101.025 21.7586 101.025 598.75 20.0227 598.75ZM312.032 20.7586 394.035 20.7586 394.035 598.75 312.032 598.75ZM605.042 21.7586 686.045 21.7586 686.045 598.75 605.042 598.75ZM897.051 21.7586 978.054 21.7586 978.054 598.75 897.051 598.75ZM1189.06 19.7586 1270.06 19.7586 1270.06 598.75 1189.06 598.75Z" fill="#C55A11"/></g></g></g><g clip-path="url(#clip8)"><path d="M692.023 263.009 773.025 263.009 773.025 840 692.023 840ZM984.032 262.009 1066.03 262.009 1066.03 840 984.032 840ZM1277.04 263.009 1358.04 263.009 1358.04 840 1277.04 840ZM1569.05 263.009 1650.05 263.009 1650.05 840 1569.05 840ZM1861.06 261.009 1942.06 261.009 1942.06 840 1861.06 840Z" fill="#C55A11"/></g><g clip-path="url(#clip9)"><path d="M692.023 326.011 773.025 326.011 773.025 840 692.023 840ZM984.032 374.012 1066.03 374.012 1066.03 840 984.032 840ZM1277.04 422.014 1358.04 422.014 1358.04 840 1277.04 840ZM1569.05 439.014 1650.05 439.014 1650.05 840 1569.05 840ZM1861.06 293.01 1942.06 293.01 1942.06 840 1861.06 840Z" fill="#FFFFFF"/></g><g clip-path="url(#clip10)"><path d="M586.5 839.5 2047.5 839.5" stroke="#D9D9D9" stroke-width="3.4375" stroke-linejoin="round" stroke-miterlimit="10" fill="none" fill-rule="evenodd"/></g><g clip-path="url(#clip11)"><path d="M586.5 839.5 586.5 852.5M878.529 839.5 878.529 852.5M1171.54 839.5 1171.54 852.5M1463.55 839.5 1463.55 852.5M1755.56 839.5 1755.56 852.5M2047.5 839.5 2047.5 852.5" stroke="#D9D9D9" stroke-width="3.4375" stroke-linejoin="round" stroke-miterlimit="10" fill="none"/></g><g clip-path="url(#clip12)"><text fill="#595959" font-family="Calibri,Calibri_MSFontService,sans-serif" font-weight="400" font-size="41" transform="matrix(1 0 0 1 527.38 851)">0</text></g><g clip-path="url(#clip13)"><text fill="#595959" font-family="Calibri,Calibri_MSFontService,sans-serif" font-weight="400" font-size="41" transform="matrix(1 0 0 1 506.48 787)">20</text></g><g clip-path="url(#clip14)"><text fill="#595959" font-family="Calibri,Calibri_MSFontService,sans-serif" font-weight="400" font-size="41" transform="matrix(1 0 0 1 506.48 723)">40</text></g><g clip-path="url(#clip15)"><text fill="#595959" font-family="Calibri,Calibri_MSFontService,sans-serif" font-weight="400" font-size="41" transform="matrix(1 0 0 1 506.48 658)">60</text></g><g clip-path="url(#clip16)"><text fill="#595959" font-family="Calibri,Calibri_MSFontService,sans-serif" font-weight="400" font-size="41" transform="matrix(1 0 0 1 506.48 594)">80</text></g><g clip-path="url(#clip17)"><text fill="#595959" font-family="Calibri,Calibri_MSFontService,sans-serif" font-weight="400" font-size="41" transform="matrix(1 0 0 1 485.58 530)">100</text></g><g clip-path="url(#clip18)"><text fill="#595959" font-family="Calibri,Calibri_MSFontService,sans-serif" font-weight="400" font-size="41" transform="matrix(1 0 0 1 485.58 466)">120</text></g><g clip-path="url(#clip19)"><text fill="#595959" font-family="Calibri,Calibri_MSFontService,sans-serif" font-weight="400" font-size="41" transform="matrix(1 0 0 1 485.58 401)">140</text></g><g clip-path="url(#clip20)"><text fill="#595959" font-family="Calibri,Calibri_MSFontService,sans-serif" font-weight="400" font-size="41" transform="matrix(1 0 0 1 485.58 337)">160</text></g><g clip-path="url(#clip21)"><text fill="#595959" font-family="Calibri,Calibri_MSFontService,sans-serif" font-weight="400" font-size="41" transform="matrix(1 0 0 1 485.58 273)">180</text></g><g clip-path="url(#clip22)"><text fill="#595959" font-family="Calibri,Calibri_MSFontService,sans-serif" font-weight="400" font-size="41" transform="matrix(1 0 0 1 485.58 209)">200</text></g><g clip-path="url(#clip23)"><text fill="#595959" font-family="Calibri,Calibri_MSFontService,sans-serif" font-weight="400" font-size="41" transform="matrix(6.12323e-17 -1 1 6.12323e-17 746.505 1030)">Pulgar Izq</text></g><g clip-path="url(#clip24)"><text fill="#595959" font-family="Calibri,Calibri_MSFontService,sans-serif" font-weight="400" font-size="41" transform="matrix(6.12323e-17 -1 1 6.12323e-17 1038.77 1025)">Indice Izq</text></g><g clip-path="url(#clip25)"><text fill="#595959" font-family="Calibri,Calibri_MSFontService,sans-serif" font-weight="400" font-size="41" transform="matrix(6.12323e-17 -1 1 6.12323e-17 1331.04 1032)">Medio Izq</text></g><g clip-path="url(#clip26)"><text fill="#595959" font-family="Calibri,Calibri_MSFontService,sans-serif" font-weight="400" font-size="41" transform="matrix(6.12323e-17 -1 1 6.12323e-17 1623.3 1034)">Anular Izq</text></g><g clip-path="url(#clip27)"><text fill="#595959" font-family="Calibri,Calibri_MSFontService,sans-serif" font-weight="400" font-size="41" transform="matrix(6.12323e-17 -1 1 6.12323e-17 1915.57 1074)">Meñique Izq</text></g><g clip-path="url(#clip28)"><g clip-path="url(#clip29)" filter="url(#fx1)" transform="translate(755 266)"><g clip-path="url(#clip30)"><path d="M20.0255 19.7589 102.028 19.7589 102.028 584.75 20.0255 584.75ZM313.035 20.759 394.038 20.759 394.038 584.75 313.035 584.75ZM605.045 19.7589 686.047 19.7589 686.047 584.75 605.045 584.75ZM897.054 19.7589 978.057 19.7589 978.057 584.75 897.054 584.75ZM1189.06 21.759 1271.07 21.759 1271.07 584.75 1189.06 584.75Z" fill="#4472C4"/></g></g></g><g clip-path="url(#clip31)"><path d="M775.025 272.009 857.028 272.009 857.028 837 775.025 837ZM1068.04 273.009 1149.04 273.009 1149.04 837 1068.04 837ZM1360.04 272.009 1441.05 272.009 1441.05 837 1360.04 837ZM1652.05 272.009 1733.06 272.009 1733.06 837 1652.05 837ZM1944.06 274.009 2026.07 274.009 2026.07 837 1944.06 837Z" fill="#4472C4"/></g><g clip-path="url(#clip32)"><path d="M775.025 396.013 857.028 396.013 857.028 837 775.025 837ZM1068.04 390.013 1149.04 390.013 1149.04 837 1068.04 837ZM1360.04 535.018 1441.05 535.018 1441.05 837 1360.04 837ZM1652.05 568.019 1733.06 568.019 1733.06 837 1652.05 837ZM1944.06 549.018 2026.07 549.018 2026.07 837 1944.06 837Z" fill="#FFFFFF"/></g><g clip-path="url(#clip33)"><text fill="#595959" font-family="Calibri,Calibri_MSFontService,sans-serif" font-weight="400" font-size="41" transform="matrix(6.12323e-17 -1 1 6.12323e-17 829.763 1039)">Pulgar Der</text></g><g clip-path="url(#clip34)"><text fill="#595959" font-family="Calibri,Calibri_MSFontService,sans-serif" font-weight="400" font-size="41" transform="matrix(6.12323e-17 -1 1 6.12323e-17 1122.03 1034)">Indice Der</text></g><g clip-path="url(#clip35)"><text fill="#595959" font-family="Calibri,Calibri_MSFontService,sans-serif" font-weight="400" font-size="41" transform="matrix(6.12323e-17 -1 1 6.12323e-17 1414.3 1042)">Medio Der</text></g><g clip-path="url(#clip36)"><text fill="#595959" font-family="Calibri,Calibri_MSFontService,sans-serif" font-weight="400" font-size="41" transform="matrix(6.12323e-17 -1 1 6.12323e-17 1706.56 1044)">Anular Der</text></g><g clip-path="url(#clip37)"><text fill="#595959" font-family="Calibri,Calibri_MSFontService,sans-serif" font-weight="400" font-size="41" transform="matrix(6.12323e-17 -1 1 6.12323e-17 1998.83 1084)">Meñique Der</text></g></g></svg>